<?xml version="1.0" encoding="UTF-8" standalone="no"?>
<!-- Created with Inkscape (http://www.inkscape.org/) -->
<svg
   xmlns:ns0="http://www.iki.fi/pav/software/textext/"
   xmlns:dc="http://purl.org/dc/elements/1.1/"
   xmlns:cc="http://creativecommons.org/ns#"
   xmlns:rdf="http://www.w3.org/1999/02/22-rdf-syntax-ns#"
   xmlns:svg="http://www.w3.org/2000/svg"
   xmlns="http://www.w3.org/2000/svg"
   xmlns:sodipodi="http://sodipodi.sourceforge.net/DTD/sodipodi-0.dtd"
   xmlns:inkscape="http://www.inkscape.org/namespaces/inkscape"
   width="744.09448819"
   height="1052.3622047"
   id="svg2"
   version="1.1"
   inkscape:version="0.46"
   sodipodi:docname="basicA.svg"
   sodipodi:version="0.32"
   inkscape:output_extension="org.inkscape.output.svg.inkscape">
  <sodipodi:namedview
     id="base"
     pagecolor="#ffffff"
     bordercolor="#666666"
     borderopacity="1.0"
     inkscape:pageopacity="0.0"
     inkscape:pageshadow="2"
     inkscape:zoom="1.4"
     inkscape:cx="417.79785"
     inkscape:cy="798.13164"
     inkscape:document-units="px"
     inkscape:current-layer="layer1"
     showgrid="false"
     inkscape:window-width="1279"
     inkscape:window-height="949"
     inkscape:window-x="0"
     inkscape:window-y="25"
     inkscape:window-maximized="1"
     showguides="true">
    <inkscape:grid
       id="grid2816"
       type="xygrid" />
  </sodipodi:namedview>
  <defs
     id="defs4">
    <marker
       style="overflow:visible"
       id="Arrow1Mstart"
       refX="0.0"
       refY="0.0"
       orient="auto"
       inkscape:stockid="Arrow1Mstart">
      <path
         transform="scale(0.4) translate(10,0)"
         style="fill-rule:evenodd;stroke:#000000;stroke-width:1.0pt;marker-start:none"
         d="M 0.0,0.0 L 5.0,-5.0 L -12.5,0.0 L 5.0,5.0 L 0.0,0.0 z "
         id="path3615" />
    </marker>
    <marker
       style="overflow:visible;"
       id="Arrow1Mend"
       refX="0.0"
       refY="0.0"
       orient="auto"
       inkscape:stockid="Arrow1Mend">
      <path
         transform="scale(0.4) rotate(180) translate(10,0)"
         style="fill-rule:evenodd;stroke:#000000;stroke-width:1.0pt;marker-start:none;"
         d="M 0.0,0.0 L 5.0,-5.0 L -12.5,0.0 L 5.0,5.0 L 0.0,0.0 z "
         id="path3618" />
    </marker>
    <marker
       style="overflow:visible;"
       id="Arrow1Lend"
       refX="0.0"
       refY="0.0"
       orient="auto"
       inkscape:stockid="Arrow1Lend">
      <path
         transform="scale(0.8) rotate(180) translate(12.5,0)"
         style="fill-rule:evenodd;stroke:#000000;stroke-width:1.0pt;marker-start:none;"
         d="M 0.0,0.0 L 5.0,-5.0 L -12.5,0.0 L 5.0,5.0 L 0.0,0.0 z "
         id="path3612" />
    </marker>
    <inkscape:perspective
       id="perspective10"
       inkscape:persp3d-origin="372.04724 : 350.78739 : 1"
       inkscape:vp_z="744.09448 : 526.18109 : 1"
       inkscape:vp_y="0 : 1000 : 0"
       inkscape:vp_x="0 : 526.18109 : 1"
       sodipodi:type="inkscape:persp3d" />
    <inkscape:perspective
       sodipodi:type="inkscape:persp3d"
       inkscape:vp_x="0 : 0.5 : 1"
       inkscape:vp_y="0 : 1000 : 0"
       inkscape:vp_z="1 : 0.5 : 1"
       inkscape:persp3d-origin="0.5 : 0.33333333 : 1"
       id="perspective4456" />
    <inkscape:perspective
       sodipodi:type="inkscape:persp3d"
       inkscape:vp_x="0 : 0.5 : 1"
       inkscape:vp_y="0 : 1000 : 0"
       inkscape:vp_z="1 : 0.5 : 1"
       inkscape:persp3d-origin="0.5 : 0.33333333 : 1"
       id="perspective4491" />
    <inkscape:perspective
       sodipodi:type="inkscape:persp3d"
       inkscape:vp_x="0 : 0.5 : 1"
       inkscape:vp_y="0 : 1000 : 0"
       inkscape:vp_z="1 : 0.5 : 1"
       inkscape:persp3d-origin="0.5 : 0.33333333 : 1"
       id="perspective4530" />
    <inkscape:perspective
       sodipodi:type="inkscape:persp3d"
       inkscape:vp_x="0 : 0.5 : 1"
       inkscape:vp_y="0 : 1000 : 0"
       inkscape:vp_z="1 : 0.5 : 1"
       inkscape:persp3d-origin="0.5 : 0.33333333 : 1"
       id="perspective4571" />
    <inkscape:perspective
       sodipodi:type="inkscape:persp3d"
       inkscape:vp_x="0 : 0.5 : 1"
       inkscape:vp_y="0 : 1000 : 0"
       inkscape:vp_z="1 : 0.5 : 1"
       inkscape:persp3d-origin="0.5 : 0.33333333 : 1"
       id="perspective4623" />
    <inkscape:perspective
       sodipodi:type="inkscape:persp3d"
       inkscape:vp_x="0 : 0.5 : 1"
       inkscape:vp_y="0 : 1000 : 0"
       inkscape:vp_z="1 : 0.5 : 1"
       inkscape:persp3d-origin="0.5 : 0.33333333 : 1"
       id="perspective4645" />
    <inkscape:perspective
       sodipodi:type="inkscape:persp3d"
       inkscape:vp_x="0 : 0.5 : 1"
       inkscape:vp_y="0 : 1000 : 0"
       inkscape:vp_z="1 : 0.5 : 1"
       inkscape:persp3d-origin="0.5 : 0.33333333 : 1"
       id="perspective4667" />
    <inkscape:perspective
       sodipodi:type="inkscape:persp3d"
       inkscape:vp_x="0 : 0.5 : 1"
       inkscape:vp_y="0 : 1000 : 0"
       inkscape:vp_z="1 : 0.5 : 1"
       inkscape:persp3d-origin="0.5 : 0.33333333 : 1"
       id="perspective4712" />
    <inkscape:perspective
       sodipodi:type="inkscape:persp3d"
       inkscape:vp_x="0 : 0.5 : 1"
       inkscape:vp_y="0 : 1000 : 0"
       inkscape:vp_z="1 : 0.5 : 1"
       inkscape:persp3d-origin="0.5 : 0.33333333 : 1"
       id="perspective4749" />
    <inkscape:perspective
       sodipodi:type="inkscape:persp3d"
       inkscape:vp_x="0 : 0.5 : 1"
       inkscape:vp_y="0 : 1000 : 0"
       inkscape:vp_z="1 : 0.5 : 1"
       inkscape:persp3d-origin="0.5 : 0.33333333 : 1"
       id="perspective4816" />
    <inkscape:perspective
       sodipodi:type="inkscape:persp3d"
       inkscape:vp_x="0 : 0.5 : 1"
       inkscape:vp_y="0 : 1000 : 0"
       inkscape:vp_z="1 : 0.5 : 1"
       inkscape:persp3d-origin="0.5 : 0.33333333 : 1"
       id="perspective4838" />
    <inkscape:perspective
       sodipodi:type="inkscape:persp3d"
       inkscape:vp_x="0 : 0.5 : 1"
       inkscape:vp_y="0 : 1000 : 0"
       inkscape:vp_z="1 : 0.5 : 1"
       inkscape:persp3d-origin="0.5 : 0.33333333 : 1"
       id="perspective4923" />
    <inkscape:perspective
       sodipodi:type="inkscape:persp3d"
       inkscape:vp_x="0 : 0.5 : 1"
       inkscape:vp_y="0 : 1000 : 0"
       inkscape:vp_z="1 : 0.5 : 1"
       inkscape:persp3d-origin="0.5 : 0.33333333 : 1"
       id="perspective4971" />
    <inkscape:perspective
       sodipodi:type="inkscape:persp3d"
       inkscape:vp_x="0 : 0.5 : 1"
       inkscape:vp_y="0 : 1000 : 0"
       inkscape:vp_z="1 : 0.5 : 1"
       inkscape:persp3d-origin="0.5 : 0.33333333 : 1"
       id="perspective4993" />
    <inkscape:perspective
       sodipodi:type="inkscape:persp3d"
       inkscape:vp_x="0 : 0.5 : 1"
       inkscape:vp_y="0 : 1000 : 0"
       inkscape:vp_z="1 : 0.5 : 1"
       inkscape:persp3d-origin="0.5 : 0.33333333 : 1"
       id="perspective5018" />
    <inkscape:perspective
       sodipodi:type="inkscape:persp3d"
       inkscape:vp_x="0 : 0.5 : 1"
       inkscape:vp_y="0 : 1000 : 0"
       inkscape:vp_z="1 : 0.5 : 1"
       inkscape:persp3d-origin="0.5 : 0.33333333 : 1"
       id="perspective5046" />
    <inkscape:perspective
       sodipodi:type="inkscape:persp3d"
       inkscape:vp_x="0 : 0.5 : 1"
       inkscape:vp_y="0 : 1000 : 0"
       inkscape:vp_z="1 : 0.5 : 1"
       inkscape:persp3d-origin="0.5 : 0.33333333 : 1"
       id="perspective5046-0" />
    <inkscape:perspective
       sodipodi:type="inkscape:persp3d"
       inkscape:vp_x="0 : 0.5 : 1"
       inkscape:vp_y="0 : 1000 : 0"
       inkscape:vp_z="1 : 0.5 : 1"
       inkscape:persp3d-origin="0.5 : 0.33333333 : 1"
       id="perspective5107" />
    <inkscape:perspective
       sodipodi:type="inkscape:persp3d"
       inkscape:vp_x="0 : 0.5 : 1"
       inkscape:vp_y="0 : 1000 : 0"
       inkscape:vp_z="1 : 0.5 : 1"
       inkscape:persp3d-origin="0.5 : 0.33333333 : 1"
       id="perspective5144" />
    <inkscape:perspective
       sodipodi:type="inkscape:persp3d"
       inkscape:vp_x="0 : 0.5 : 1"
       inkscape:vp_y="0 : 1000 : 0"
       inkscape:vp_z="1 : 0.5 : 1"
       inkscape:persp3d-origin="0.5 : 0.33333333 : 1"
       id="perspective5166" />
    <inkscape:perspective
       sodipodi:type="inkscape:persp3d"
       inkscape:vp_x="0 : 0.5 : 1"
       inkscape:vp_y="0 : 1000 : 0"
       inkscape:vp_z="1 : 0.5 : 1"
       inkscape:persp3d-origin="0.5 : 0.33333333 : 1"
       id="perspective5166-6" />
    <inkscape:perspective
       sodipodi:type="inkscape:persp3d"
       inkscape:vp_x="0 : 0.5 : 1"
       inkscape:vp_y="0 : 1000 : 0"
       inkscape:vp_z="1 : 0.5 : 1"
       inkscape:persp3d-origin="0.5 : 0.33333333 : 1"
       id="perspective5197" />
    <inkscape:perspective
       sodipodi:type="inkscape:persp3d"
       inkscape:vp_x="0 : 0.5 : 1"
       inkscape:vp_y="0 : 1000 : 0"
       inkscape:vp_z="1 : 0.5 : 1"
       inkscape:persp3d-origin="0.5 : 0.33333333 : 1"
       id="perspective5219" />
    <inkscape:perspective
       sodipodi:type="inkscape:persp3d"
       inkscape:vp_x="0 : 0.5 : 1"
       inkscape:vp_y="0 : 1000 : 0"
       inkscape:vp_z="1 : 0.5 : 1"
       inkscape:persp3d-origin="0.5 : 0.33333333 : 1"
       id="perspective5241" />
  </defs>
  <metadata
     id="metadata7">
    <rdf:RDF>
      <cc:Work
         rdf:about="">
        <dc:format>image/svg+xml</dc:format>
        <dc:type
           rdf:resource="http://purl.org/dc/dcmitype/StillImage" />
        <dc:title />
      </cc:Work>
    </rdf:RDF>
  </metadata>
  <g
     id="layer1"
     inkscape:groupmode="layer"
     inkscape:label="Layer 1">
    <g
       transform="matrix(2.2487383,0,0,2.1882315,101.49372,-172.30358)"
       id="g2828">
      <path
         style="fill:none;stroke:#000000;stroke-width:1px;stroke-linecap:butt;stroke-linejoin:miter;stroke-opacity:1"
         d="M 240,212.36218 C 194.40246,84.710709 130.64599,63.011239 65,212.36218 C 55.480548,236.43159 43.556649,248.47876 30,252.36218"
         id="path2824"
         sodipodi:nodetypes="ccc" />
      <path
         style="fill:none;stroke:#000000;stroke-width:1px;stroke-linecap:butt;stroke-linejoin:miter;stroke-opacity:1"
         d="M 240,212.36218 C 245,230.49672 255,236.33774 260,242.36218"
         id="path2826"
         sodipodi:nodetypes="cc" />
    </g>
    <path
       id="path2832"
       d="M 101.49372,18.865094 L 101.49372,412.74675 L 742.38414,412.74675"
       style="fill:none;stroke:#000000;stroke-width:2.21827865px;stroke-linecap:butt;stroke-linejoin:miter;marker-start:url(#Arrow1Mstart);marker-end:url(#Arrow1Mend);stroke-opacity:1" />
    <flowRoot
       style="font-size:40px;font-style:normal;font-weight:normal;fill:#000000;fill-opacity:1;stroke:none;font-family:Bitstream Vera Sans"
       id="flowRoot4432"
       xml:space="preserve"><flowRegion
         id="flowRegion4434"><rect
           y="72.514214"
           x="-2.5253813"
           height="84.847969"
           width="62.525383"
           id="rect4436" /></flowRegion><flowPara
         id="flowPara4438">qqqqqqqqqqqqq</flowPara></flowRoot>    <path
       sodipodi:nodetypes="cc"
       id="path4479"
       d="M 103.74246,204.86475 L 719.89677,204.86475"
       style="fill:#0c8000;fill-opacity:1;stroke:#42a800;stroke-width:4.43655729;stroke-linecap:butt;stroke-linejoin:miter;stroke-miterlimit:4;stroke-dasharray:4.43655722, 8.87311444;stroke-dashoffset:0;stroke-opacity:1" />
    <path
       sodipodi:nodetypes="cc"
       id="path4481"
       d="M 103.74246,117.33551 L 719.89677,117.33551"
       style="fill:none;stroke:#0000f5;stroke-width:2.21827865;stroke-linecap:butt;stroke-linejoin:miter;stroke-miterlimit:4;stroke-dasharray:13.30967167, 4.43655722;stroke-dashoffset:0;stroke-opacity:1" />
    <path
       sodipodi:nodetypes="cc"
       id="path4613-22"
       d="M 290.76921,205.06015 L 354.61733,118.70315"
       style="fill:none;stroke:#00fcf2;stroke-width:2.21827865px;stroke-linecap:butt;stroke-linejoin:miter;stroke-opacity:1" />
    <path
       sodipodi:nodetypes="cc"
       inkscape:transform-center-y="3.1260485"
       id="path4613-2-1"
       d="M 305.02459,205.06015 L 377.30546,106.19898"
       style="fill:none;stroke:#00fcf2;stroke-width:2.21827865px;stroke-linecap:butt;stroke-linejoin:miter;stroke-opacity:1" />
    <path
       sodipodi:nodetypes="cc"
       inkscape:transform-center-y="3.12604"
       id="path4613-2-3-6"
       d="M 318.67766,205.4509 L 377.70704,121.82919"
       style="fill:none;stroke:#00fcf2;stroke-width:2.21827865px;stroke-linecap:butt;stroke-linejoin:miter;stroke-opacity:1" />
    <path
       sodipodi:nodetypes="cc"
       id="path4613-8"
       d="M 332.38096,205.54858 L 377.75728,141.85542"
       style="fill:none;stroke:#00fcf2;stroke-width:2.21827865px;stroke-linecap:butt;stroke-linejoin:miter;stroke-opacity:1" />
    <path
       sodipodi:nodetypes="cc"
       inkscape:transform-center-y="3.1260356"
       id="path4613-2-5"
       d="M 346.63634,205.54858 L 377.15493,164.12848"
       style="fill:none;stroke:#00fcf2;stroke-width:2.21827865px;stroke-linecap:butt;stroke-linejoin:miter;stroke-opacity:1" />
    <path
       sodipodi:nodetypes="cc"
       inkscape:transform-center-y="3.1260493"
       id="path4613-2-3-7"
       d="M 360.28937,205.93935 L 386.39081,170.38058"
       style="fill:none;stroke:#00fcf2;stroke-width:2.21827865px;stroke-linecap:butt;stroke-linejoin:miter;stroke-opacity:1" />
    <path
       id="path4806"
       d="M 291.72339,204.7587 L 290.58759,412.54077"
       style="fill:none;stroke:#000000;stroke-width:2.21827865;stroke-linecap:butt;stroke-linejoin:miter;stroke-miterlimit:4;stroke-dasharray:1.10913931, 1.10913931;stroke-dashoffset:0;stroke-opacity:1" />
    <path
       id="path4806-5"
       d="M 605.76776,205.86393 L 604.63197,413.64601"
       style="fill:none;stroke:#000000;stroke-width:2.21827865;stroke-linecap:butt;stroke-linejoin:miter;stroke-miterlimit:4;stroke-dasharray:1.10913931, 1.10913931;stroke-dashoffset:0;stroke-opacity:1" />
    <path
       sodipodi:nodetypes="cc"
       id="path4961-0"
       d="M 454.90703,65.26732 L 379.41367,180.14945"
       style="fill:#ff0000;stroke:#ff0000;stroke-width:2.21827865px;stroke-linecap:butt;stroke-linejoin:miter;stroke-opacity:1" />
    <path
       sodipodi:nodetypes="cc"
       id="path4961-8-2"
       d="M 470.16634,66.439587 L 379.4137,200.07799"
       style="fill:#ff0000;stroke:#ff0000;stroke-width:2.21827865px;stroke-linecap:butt;stroke-linejoin:miter;stroke-opacity:1" />
    <path
       sodipodi:nodetypes="cc"
       id="path4961-6-8"
       d="M 479.40224,70.542526 L 392.66517,202.61791"
       style="fill:#ff0000;stroke:#ff0000;stroke-width:2.21827865px;stroke-linecap:butt;stroke-linejoin:miter;stroke-opacity:1" />
    <path
       sodipodi:nodetypes="cc"
       id="path4961-60"
       d="M 491.75023,74.88968 L 408.22564,202.27599"
       style="fill:#ff0000;stroke:#ff0000;stroke-width:2.21827865px;stroke-linecap:butt;stroke-linejoin:miter;stroke-opacity:1" />
    <path
       sodipodi:nodetypes="cc"
       id="path4961-8-24"
       d="M 502.19082,79.187991 L 421.87872,201.88525"
       style="fill:#ff0000;stroke:#ff0000;stroke-width:2.21827865px;stroke-linecap:butt;stroke-linejoin:miter;stroke-opacity:1" />
    <path
       sodipodi:nodetypes="cc"
       id="path4961-6-86"
       d="M 512.22981,86.416977 L 436.73645,202.86213"
       style="fill:#ff0000;stroke:#ff0000;stroke-width:2.21827865px;stroke-linecap:butt;stroke-linejoin:miter;stroke-opacity:1" />
    <path
       sodipodi:nodetypes="cc"
       id="path4961-8-5-5"
       d="M 519.45789,93.841334 L 450.38949,202.47139"
       style="fill:#ff0000;stroke:#ff0000;stroke-width:2.21827865px;stroke-linecap:butt;stroke-linejoin:miter;stroke-opacity:1" />
    <path
       sodipodi:nodetypes="cc"
       id="path4961-0-0"
       d="M 529.69768,101.75413 L 463.03864,201.78755"
       style="fill:#ff0000;stroke:#ff0000;stroke-width:2.21827865px;stroke-linecap:butt;stroke-linejoin:miter;stroke-opacity:1" />
    <path
       sodipodi:nodetypes="cc"
       id="path4961-8-2-9"
       d="M 537.7289,110.7415 L 476.6917,201.3968"
       style="fill:#ff0000;stroke:#ff0000;stroke-width:2.21827865px;stroke-linecap:butt;stroke-linejoin:miter;stroke-opacity:1" />
    <path
       id="path4961-6-8-0"
       d="M 547.76791,118.75201 L 491.54944,202.37367"
       style="fill:#ff0000;stroke:#ff0000;stroke-width:2.21827865px;stroke-linecap:butt;stroke-linejoin:miter;stroke-opacity:1" />
    <path
       sodipodi:nodetypes="cc"
       id="path4961-61"
       d="M 553.5905,127.25093 L 505.40327,202.27599"
       style="fill:#ff0000;stroke:#ff0000;stroke-width:2.21827865px;stroke-linecap:butt;stroke-linejoin:miter;stroke-opacity:1" />
    <path
       sodipodi:nodetypes="cc"
       id="path4961-8-3"
       d="M 561.62172,137.80134 L 519.05632,201.88525"
       style="fill:#ff0000;stroke:#ff0000;stroke-width:2.21827865px;stroke-linecap:butt;stroke-linejoin:miter;stroke-opacity:1" />
    <path
       sodipodi:nodetypes="cc"
       id="path4961-6-89"
       d="M 569.25137,151.28241 L 533.91405,202.86213"
       style="fill:#ff0000;stroke:#ff0000;stroke-width:2.21827865px;stroke-linecap:butt;stroke-linejoin:miter;stroke-opacity:1" />
    <path
       sodipodi:nodetypes="cc"
       id="path4961-8-5-3"
       d="M 577.28258,159.48827 L 547.56711,202.47139"
       style="fill:#ff0000;stroke:#ff0000;stroke-width:2.21827865px;stroke-linecap:butt;stroke-linejoin:miter;stroke-opacity:1" />
    <path
       sodipodi:nodetypes="cc"
       id="path4961-0-4"
       d="M 582.70366,169.7456 L 560.21628,201.78755"
       style="fill:#ff0000;stroke:#ff0000;stroke-width:2.21827865px;stroke-linecap:butt;stroke-linejoin:miter;stroke-opacity:1" />
    <path
       sodipodi:nodetypes="cc"
       id="path4961-8-2-4"
       d="M 589.93173,177.95147 L 573.86933,201.3968"
       style="fill:#ff0000;stroke:#ff0000;stroke-width:2.21827865px;stroke-linecap:butt;stroke-linejoin:miter;stroke-opacity:1" />
    <path
       sodipodi:nodetypes="cc"
       id="path4961-6-8-6"
       d="M 595.95516,190.65103 L 588.72704,202.37367"
       style="fill:#ff0000;stroke:#ff0000;stroke-width:2.21827865px;stroke-linecap:butt;stroke-linejoin:miter;stroke-opacity:1" />
    <path
       id="path5121"
       d="M 379.21291,203.30176 L 380.81916,92.327148"
       style="fill:none;stroke:#fc0000;stroke-width:2.21827865px;stroke-linecap:butt;stroke-linejoin:miter;stroke-opacity:1" />
    <path
       sodipodi:nodetypes="cc"
       id="path4961-0-0-0"
       d="M 441.45477,66.537288 L 380.41758,157.97408"
       style="fill:#ff0000;stroke:#ff0000;stroke-width:2.21827865px;stroke-linecap:butt;stroke-linejoin:miter;stroke-opacity:1" />
    <path
       sodipodi:nodetypes="cc"
       id="path4961-8-3-7"
       d="M 426.19548,70.444834 L 378.81135,141.56235"
       style="fill:#ff0000;stroke:#ff0000;stroke-width:2.21827865px;stroke-linecap:butt;stroke-linejoin:miter;stroke-opacity:1" />
    <path
       sodipodi:nodetypes="cc"
       id="path4961-8-3-3"
       d="M 408.52683,76.696926 L 381.22072,119.68004"
       style="fill:#ff0000;stroke:#ff0000;stroke-width:2.21827865px;stroke-linecap:butt;stroke-linejoin:miter;stroke-opacity:1" />
    <path
       sodipodi:nodetypes="cc"
       id="path4961-6-8-6-6"
       d="M 390.05504,89.591868 L 382.82694,101.31452"
       style="fill:#ff0000;stroke:#ff0000;stroke-width:2.21827865px;stroke-linecap:butt;stroke-linejoin:miter;stroke-opacity:1" />
    <path
       id="path4806-2"
       d="M 379.74668,206.37213 L 378.61088,414.15418"
       style="fill:none;stroke:#000000;stroke-width:2.21827865;stroke-linecap:butt;stroke-linejoin:miter;stroke-miterlimit:4;stroke-dasharray:1.10913931, 1.10913931;stroke-dashoffset:0;stroke-opacity:1" />
    <g
       id="g3429"
       transform="matrix(4.4974766,0,0,-4.3764631,-335.02148,2272.81)"
       xml:space="preserve"
       stroke-miterlimit="10.433"
       fill-rule="even-odd"
       font-style="normal"
       font-variant="normal"
       font-weight="normal"
       font-stretch="normal"
       font-size-adjust="none"
       letter-spacing="normal"
       word-spacing="normal"
       ns0:text="\\textcolor{blue}{$q_f$}"
       ns0:preamble="/lordvader/gargallo/Desktop/Dropbox/PHD/High_order/paperMeshing/thingsForINKSCAPE.txt"
       style="font-style:normal;font-variant:normal;font-weight:normal;font-stretch:normal;letter-spacing:normal;word-spacing:normal;text-anchor:start;fill:none;fill-opacity:1;stroke:#000000;stroke-linecap:butt;stroke-linejoin:miter;stroke-miterlimit:10.43299961;stroke-dasharray:none;stroke-dashoffset:0;stroke-opacity:1">
<path
   style="fill:#0000ff;stroke:#0000ff;stroke-width:0"
   d="M 89.546,496.05 L 89.546,496.06 L 89.545,496.06 L 89.545,496.07 L 89.544,496.07 L 89.543,496.07 L 89.542,496.08 L 89.541,496.08 L 89.54,496.09 L 89.538,496.09 L 89.537,496.09 L 89.535,496.1 L 89.532,496.1 L 89.53,496.11 L 89.528,496.11 L 89.525,496.12 L 89.522,496.12 L 89.519,496.12 L 89.515,496.13 L 89.512,496.13 L 89.508,496.13 L 89.504,496.14 L 89.5,496.14 L 89.496,496.14 L 89.491,496.14 L 89.486,496.15 L 89.481,496.15 L 89.476,496.15 L 89.47,496.15 L 89.465,496.15 L 89.459,496.15 L 89.452,496.15 L 89.446,496.15 C 89.336,496.15 88.938,495.76 88.769,495.47 C 88.549,496 88.161,496.16 87.842,496.16 L 87.842,495.94 C 88.49,495.94 88.629,495.14 88.629,495.07 C 88.629,495.01 88.081,492.83 88.051,492.79 C 87.902,492.51 87.344,491.87 86.786,491.87 L 86.786,491.87 C 86.188,491.87 86.148,492.64 86.148,492.81 C 86.148,493.28 86.437,494.37 86.607,494.79 C 86.915,495.53 87.434,495.94 87.842,495.94 L 87.842,496.16 C 86.666,496.16 85.441,494.69 85.441,493.24 C 85.441,492.27 86.029,491.65 86.756,491.65 C 87.185,491.65 87.573,491.89 87.932,492.25 C 87.842,491.9 87.513,490.55 87.483,490.46 C 87.404,490.19 87.324,490.15 86.766,490.14 C 86.636,490.14 86.537,490.14 86.537,489.94 C 86.537,489.93 86.537,489.83 86.666,489.83 C 86.985,489.83 87.334,489.86 87.663,489.86 C 88.001,489.86 88.36,489.83 88.689,489.83 C 88.739,489.83 88.868,489.83 88.868,490.03 C 88.868,490.14 88.769,490.14 88.609,490.14 C 88.131,490.14 88.131,490.21 88.131,490.3 C 88.131,490.36 88.151,490.42 88.171,490.52 L 89.546,496.05 z"
   id="path3431" />
<path
   style="fill:#0000ff;stroke:#0000ff;stroke-width:0"
   d="M 92.328,493.02 L 93.012,493.02 C 93.151,493.02 93.242,493.02 93.242,493.18 C 93.242,493.27 93.151,493.27 93.026,493.27 L 92.377,493.27 C 92.538,494.16 92.593,494.48 92.649,494.68 C 92.684,494.83 92.837,494.98 93.005,494.98 C 93.012,494.98 93.2,494.98 93.333,494.9 C 93.047,494.81 93.026,494.56 93.026,494.52 C 93.026,494.36 93.144,494.26 93.305,494.26 C 93.493,494.26 93.702,494.42 93.702,494.68 C 93.702,495 93.36,495.18 93.005,495.18 C 92.698,495.18 92.356,495 92.168,494.65 C 92.029,494.4 91.973,494.08 91.826,493.27 L 91.275,493.27 C 91.136,493.27 91.045,493.27 91.045,493.12 C 91.045,493.02 91.136,493.02 91.261,493.02 L 91.777,493.02 C 91.77,492.98 91.331,490.47 91.164,489.72 C 91.129,489.57 91.01,489.04 90.676,489.04 C 90.669,489.04 90.501,489.04 90.369,489.12 C 90.655,489.21 90.676,489.47 90.676,489.51 C 90.676,489.66 90.557,489.77 90.397,489.77 C 90.208,489.77 89.999,489.61 89.999,489.34 C 89.999,489.03 90.327,488.85 90.676,488.85 C 91.122,488.85 91.429,489.3 91.512,489.46 C 91.763,489.93 91.924,490.78 91.938,490.87 L 92.328,493.02 z"
   id="path3433" />
</g>    <g
       style="font-style:normal;font-variant:normal;font-weight:normal;font-stretch:normal;letter-spacing:normal;word-spacing:normal;text-anchor:start;fill:none;fill-opacity:1;stroke:#000000;stroke-linecap:butt;stroke-linejoin:miter;stroke-miterlimit:10.43299961;stroke-dasharray:none;stroke-dashoffset:0;stroke-opacity:1"
       ns0:preamble="/lordvader/gargallo/Desktop/Dropbox/PHD/High_order/paperMeshing/thingsForINKSCAPE.txt"
       ns0:text="$q$"
       word-spacing="normal"
       letter-spacing="normal"
       font-size-adjust="none"
       font-stretch="normal"
       font-weight="normal"
       font-variant="normal"
       font-style="normal"
       fill-rule="even-odd"
       stroke-miterlimit="10.433"
       xml:space="preserve"
       transform="matrix(4.4974766,0,0,-4.3764631,-319.28269,2194.4684)"
       id="content">
<path
   id="path3687"
   d="M 89.546,496.05 L 89.546,496.06 L 89.545,496.06 L 89.545,496.07 L 89.544,496.07 L 89.543,496.07 L 89.542,496.08 L 89.541,496.08 L 89.54,496.09 L 89.538,496.09 L 89.537,496.09 L 89.535,496.1 L 89.532,496.1 L 89.53,496.11 L 89.528,496.11 L 89.525,496.12 L 89.522,496.12 L 89.519,496.12 L 89.515,496.13 L 89.512,496.13 L 89.508,496.13 L 89.504,496.14 L 89.5,496.14 L 89.496,496.14 L 89.491,496.14 L 89.486,496.15 L 89.481,496.15 L 89.476,496.15 L 89.47,496.15 L 89.465,496.15 L 89.459,496.15 L 89.452,496.15 L 89.446,496.15 C 89.336,496.15 88.938,495.76 88.769,495.47 C 88.549,496 88.161,496.16 87.842,496.16 L 87.842,495.94 C 88.49,495.94 88.629,495.14 88.629,495.07 C 88.629,495.01 88.081,492.83 88.051,492.79 C 87.902,492.51 87.344,491.87 86.786,491.87 L 86.786,491.87 C 86.188,491.87 86.148,492.64 86.148,492.81 C 86.148,493.28 86.437,494.37 86.607,494.79 C 86.915,495.53 87.434,495.94 87.842,495.94 L 87.842,496.16 C 86.666,496.16 85.441,494.69 85.441,493.24 C 85.441,492.27 86.029,491.65 86.756,491.65 C 87.185,491.65 87.573,491.89 87.932,492.25 C 87.842,491.9 87.513,490.55 87.483,490.46 C 87.404,490.19 87.324,490.15 86.766,490.14 C 86.636,490.14 86.537,490.14 86.537,489.94 C 86.537,489.93 86.537,489.83 86.666,489.83 C 86.985,489.83 87.334,489.86 87.663,489.86 C 88.001,489.86 88.36,489.83 88.689,489.83 C 88.739,489.83 88.868,489.83 88.868,490.03 C 88.868,490.14 88.769,490.14 88.609,490.14 C 88.131,490.14 88.131,490.21 88.131,490.3 C 88.131,490.36 88.151,490.42 88.171,490.52 L 89.546,496.05 z"
   style="fill:#000000;stroke-width:0" />
</g>    <g
       id="g4435"
       transform="matrix(4.4974766,0,0,-4.3764631,343.45089,2599.9562)"
       xml:space="preserve"
       stroke-miterlimit="10.433"
       fill-rule="even-odd"
       font-style="normal"
       font-variant="normal"
       font-weight="normal"
       font-stretch="normal"
       font-size-adjust="none"
       letter-spacing="normal"
       word-spacing="normal"
       ns0:text="$t$"
       ns0:preamble="/lordvader/gargallo/Desktop/Dropbox/PHD/High_order/paperMeshing/thingsForINKSCAPE.txt"
       style="font-style:normal;font-variant:normal;font-weight:normal;font-stretch:normal;letter-spacing:normal;word-spacing:normal;text-anchor:start;fill:none;fill-opacity:1;stroke:#000000;stroke-linecap:butt;stroke-linejoin:miter;stroke-miterlimit:10.43299961;stroke-dasharray:none;stroke-dashoffset:0;stroke-opacity:1">
<path
   d="M 87.095,495.74 L 88.031,495.74 C 88.23,495.74 88.33,495.74 88.33,495.94 C 88.33,496.05 88.23,496.05 88.051,496.05 L 87.174,496.05 C 87.533,497.47 87.583,497.67 87.583,497.73 C 87.583,497.9 87.463,498 87.294,498 C 87.264,498 86.985,497.99 86.896,497.64 L 86.507,496.05 L 85.571,496.05 C 85.371,496.05 85.272,496.05 85.272,495.86 C 85.272,495.74 85.351,495.74 85.551,495.74 L 86.427,495.74 C 85.71,492.92 85.67,492.75 85.67,492.57 C 85.67,492.03 86.049,491.65 86.587,491.65 C 87.603,491.65 88.171,493.11 88.171,493.18 C 88.171,493.28 88.091,493.28 88.051,493.28 C 87.962,493.28 87.952,493.25 87.902,493.14 C 87.473,492.11 86.945,491.87 86.607,491.87 C 86.397,491.87 86.298,492 86.298,492.33 C 86.298,492.57 86.318,492.64 86.358,492.81 L 87.095,495.74 z"
   id="path4437"
   style="fill:#000000;stroke-width:0" />
</g>    <g
       style="font-style:normal;font-variant:normal;font-weight:normal;font-stretch:normal;letter-spacing:normal;word-spacing:normal;text-anchor:start;fill:none;fill-opacity:1;stroke:#000000;stroke-linecap:butt;stroke-linejoin:miter;stroke-miterlimit:10.43299961;stroke-dasharray:none;stroke-dashoffset:0;stroke-opacity:1"
       ns0:preamble="/lordvader/gargallo/Desktop/Dropbox/PHD/High_order/paperMeshing/thingsForINKSCAPE.txt"
       ns0:text="$t_f$"
       word-spacing="normal"
       letter-spacing="normal"
       font-size-adjust="none"
       font-stretch="normal"
       font-weight="normal"
       font-variant="normal"
       font-style="normal"
       fill-rule="even-odd"
       stroke-miterlimit="10.433"
       xml:space="preserve"
       transform="matrix(4.4974766,0,0,-4.3764631,210.56411,2603.2718)"
       id="g4681">
<path
   id="path4683"
   d="M 87.095,495.74 L 88.031,495.74 C 88.23,495.74 88.33,495.74 88.33,495.94 C 88.33,496.05 88.23,496.05 88.051,496.05 L 87.174,496.05 C 87.533,497.47 87.583,497.67 87.583,497.73 C 87.583,497.9 87.463,498 87.294,498 C 87.264,498 86.985,497.99 86.896,497.64 L 86.507,496.05 L 85.571,496.05 C 85.371,496.05 85.272,496.05 85.272,495.86 C 85.272,495.74 85.351,495.74 85.551,495.74 L 86.427,495.74 C 85.71,492.92 85.67,492.75 85.67,492.57 C 85.67,492.03 86.049,491.65 86.587,491.65 C 87.603,491.65 88.171,493.11 88.171,493.18 C 88.171,493.28 88.091,493.28 88.051,493.28 C 87.962,493.28 87.952,493.25 87.902,493.14 C 87.473,492.11 86.945,491.87 86.607,491.87 C 86.397,491.87 86.298,492 86.298,492.33 C 86.298,492.57 86.318,492.64 86.358,492.81 L 87.095,495.74 z"
   style="fill:#000000;stroke-width:0" />
<path
   id="path4685"
   d="M 91.473,493.02 L 92.157,493.02 C 92.296,493.02 92.387,493.02 92.387,493.18 C 92.387,493.27 92.296,493.27 92.171,493.27 L 91.522,493.27 C 91.683,494.16 91.738,494.48 91.794,494.68 C 91.829,494.83 91.982,494.98 92.15,494.98 C 92.157,494.98 92.345,494.98 92.478,494.9 C 92.192,494.81 92.171,494.56 92.171,494.52 C 92.171,494.36 92.289,494.26 92.45,494.26 C 92.638,494.26 92.847,494.42 92.847,494.68 C 92.847,495 92.506,495.18 92.15,495.18 C 91.843,495.18 91.501,495 91.313,494.65 C 91.174,494.4 91.118,494.08 90.971,493.27 L 90.42,493.27 C 90.281,493.27 90.19,493.27 90.19,493.12 C 90.19,493.02 90.281,493.02 90.406,493.02 L 90.922,493.02 C 90.915,492.98 90.476,490.47 90.309,489.72 C 90.274,489.57 90.155,489.04 89.821,489.04 C 89.814,489.04 89.646,489.04 89.514,489.12 C 89.8,489.21 89.821,489.47 89.821,489.51 C 89.821,489.66 89.702,489.77 89.542,489.77 C 89.353,489.77 89.144,489.61 89.144,489.34 C 89.144,489.03 89.472,488.85 89.821,488.85 C 90.267,488.85 90.574,489.3 90.657,489.46 C 90.909,489.93 91.069,490.78 91.083,490.87 L 91.473,493.02 z"
   style="fill:#000000;stroke-width:0" />
</g>    <g
       id="g4931"
       transform="matrix(4.4974766,0,0,-4.3764631,-12.049627,2602.1668)"
       xml:space="preserve"
       stroke-miterlimit="10.433"
       fill-rule="even-odd"
       font-style="normal"
       font-variant="normal"
       font-weight="normal"
       font-stretch="normal"
       font-size-adjust="none"
       letter-spacing="normal"
       word-spacing="normal"
       ns0:text="$t_m$"
       ns0:preamble="/lordvader/gargallo/Desktop/Dropbox/PHD/High_order/paperMeshing/thingsForINKSCAPE.txt"
       style="font-style:normal;font-variant:normal;font-weight:normal;font-stretch:normal;letter-spacing:normal;word-spacing:normal;text-anchor:start;fill:none;fill-opacity:1;stroke:#000000;stroke-linecap:butt;stroke-linejoin:miter;stroke-miterlimit:10.43299961;stroke-dasharray:none;stroke-dashoffset:0;stroke-opacity:1">
<path
   d="M 87.095,495.74 L 88.031,495.74 C 88.23,495.74 88.33,495.74 88.33,495.94 C 88.33,496.05 88.23,496.05 88.051,496.05 L 87.174,496.05 C 87.533,497.47 87.583,497.67 87.583,497.73 C 87.583,497.9 87.463,498 87.294,498 C 87.264,498 86.985,497.99 86.896,497.64 L 86.507,496.05 L 85.571,496.05 C 85.371,496.05 85.272,496.05 85.272,495.86 C 85.272,495.74 85.351,495.74 85.551,495.74 L 86.427,495.74 C 85.71,492.92 85.67,492.75 85.67,492.57 C 85.67,492.03 86.049,491.65 86.587,491.65 C 87.603,491.65 88.171,493.11 88.171,493.18 C 88.171,493.28 88.091,493.28 88.051,493.28 C 87.962,493.28 87.952,493.25 87.902,493.14 C 87.473,492.11 86.945,491.87 86.607,491.87 C 86.397,491.87 86.298,492 86.298,492.33 C 86.298,492.57 86.318,492.64 86.358,492.81 L 87.095,495.74 z"
   id="path4933"
   style="fill:#000000;stroke-width:0" />
<path
   d="M 91.662,490.83 L 91.658,490.82 L 91.655,490.8 L 91.651,490.79 L 91.647,490.78 L 91.644,490.76 L 91.64,490.75 L 91.632,490.71 L 91.624,490.68 L 91.615,490.65 L 91.607,490.62 L 91.604,490.6 L 91.6,490.59 L 91.596,490.57 L 91.592,490.56 L 91.589,490.54 L 91.586,490.53 L 91.583,490.52 L 91.58,490.5 L 91.577,490.49 L 91.574,490.48 L 91.572,490.47 L 91.57,490.46 L 91.568,490.45 L 91.567,490.44 L 91.566,490.44 L 91.565,490.43 L 91.564,490.42 L 91.564,490.42 C 91.564,490.27 91.689,490.2 91.801,490.2 C 91.927,490.2 92.038,490.29 92.073,490.35 C 92.108,490.41 92.164,490.64 92.199,490.78 C 92.233,490.92 92.31,491.24 92.352,491.41 C 92.394,491.57 92.436,491.72 92.471,491.88 C 92.547,492.18 92.547,492.19 92.687,492.41 C 92.91,492.75 93.259,493.15 93.803,493.15 C 94.193,493.15 94.214,492.83 94.214,492.66 C 94.214,492.24 93.914,491.47 93.803,491.17 C 93.726,490.98 93.698,490.92 93.698,490.8 C 93.698,490.43 94.005,490.2 94.36,490.2 C 95.058,490.2 95.365,491.16 95.365,491.27 C 95.365,491.36 95.274,491.36 95.253,491.36 C 95.156,491.36 95.148,491.31 95.121,491.24 C 94.96,490.68 94.66,490.39 94.381,490.39 C 94.235,490.39 94.207,490.49 94.207,490.64 C 94.207,490.8 94.242,490.89 94.368,491.2 C 94.451,491.42 94.737,492.16 94.737,492.55 C 94.737,492.66 94.737,492.95 94.479,493.15 C 94.36,493.24 94.158,493.34 93.83,493.34 C 93.203,493.34 92.819,492.93 92.596,492.64 C 92.54,493.23 92.045,493.34 91.689,493.34 C 91.111,493.34 90.72,492.99 90.511,492.71 C 90.462,493.19 90.051,493.34 89.765,493.34 C 89.465,493.34 89.304,493.13 89.214,492.97 C 89.06,492.71 88.963,492.31 88.963,492.28 C 88.963,492.18 89.06,492.18 89.081,492.18 C 89.179,492.18 89.186,492.21 89.235,492.39 C 89.339,492.81 89.472,493.15 89.744,493.15 C 89.925,493.15 89.974,492.99 89.974,492.81 C 89.974,492.67 89.911,492.42 89.862,492.23 C 89.814,492.04 89.744,491.75 89.709,491.6 L 89.486,490.71 C 89.458,490.62 89.416,490.44 89.416,490.42 C 89.416,490.27 89.542,490.2 89.653,490.2 C 89.779,490.2 89.89,490.29 89.925,490.35 C 89.96,490.41 90.016,490.64 90.051,490.78 C 90.086,490.92 90.162,491.24 90.204,491.41 C 90.246,491.57 90.288,491.72 90.323,491.88 C 90.399,492.16 90.413,492.22 90.616,492.51 C 90.811,492.79 91.139,493.15 91.662,493.15 C 92.066,493.15 92.073,492.79 92.073,492.66 C 92.073,492.48 92.052,492.39 91.954,492 L 91.662,490.83 z"
   id="path4935"
   style="fill:#000000;stroke-width:0" />
</g>    <g
       style="font-style:normal;font-variant:normal;font-weight:normal;font-stretch:normal;letter-spacing:normal;word-spacing:normal;text-anchor:start;fill:none;fill-opacity:1;stroke:#000000;stroke-linecap:butt;stroke-linejoin:miter;stroke-miterlimit:10.43299961;stroke-dasharray:none;stroke-dashoffset:0;stroke-opacity:1"
       ns0:preamble="/lordvader/gargallo/Desktop/Dropbox/PHD/High_order/paperMeshing/thingsForINKSCAPE.txt"
       ns0:text="$t_i$"
       word-spacing="normal"
       letter-spacing="normal"
       font-size-adjust="none"
       font-stretch="normal"
       font-weight="normal"
       font-variant="normal"
       font-style="normal"
       fill-rule="even-odd"
       stroke-miterlimit="10.433"
       xml:space="preserve"
       transform="matrix(4.4974766,0,0,-4.3764631,-101.77659,2602.1668)"
       id="g5183">
<path
   id="path5185"
   d="M 87.095,495.74 L 88.031,495.74 C 88.23,495.74 88.33,495.74 88.33,495.94 C 88.33,496.05 88.23,496.05 88.051,496.05 L 87.174,496.05 C 87.533,497.47 87.583,497.67 87.583,497.73 C 87.583,497.9 87.463,498 87.294,498 C 87.264,498 86.985,497.99 86.896,497.64 L 86.507,496.05 L 85.571,496.05 C 85.371,496.05 85.272,496.05 85.272,495.86 C 85.272,495.74 85.351,495.74 85.551,495.74 L 86.427,495.74 C 85.71,492.92 85.67,492.75 85.67,492.57 C 85.67,492.03 86.049,491.65 86.587,491.65 C 87.603,491.65 88.171,493.11 88.171,493.18 C 88.171,493.28 88.091,493.28 88.051,493.28 C 87.962,493.28 87.952,493.25 87.902,493.14 C 87.473,492.11 86.945,491.87 86.607,491.87 C 86.397,491.87 86.298,492 86.298,492.33 C 86.298,492.57 86.318,492.64 86.358,492.81 L 87.095,495.74 z"
   style="fill:#000000;stroke-width:0" />
<path
   id="path5187"
   d="M 90.895,494.63 L 90.894,494.64 L 90.894,494.65 L 90.892,494.66 L 90.891,494.67 L 90.888,494.68 L 90.885,494.69 L 90.882,494.7 L 90.878,494.71 L 90.874,494.73 L 90.869,494.74 L 90.864,494.75 L 90.858,494.76 L 90.851,494.77 L 90.844,494.78 L 90.836,494.79 L 90.828,494.8 L 90.819,494.81 L 90.81,494.82 L 90.8,494.83 L 90.79,494.84 L 90.779,494.84 L 90.767,494.85 L 90.754,494.86 L 90.742,494.87 L 90.728,494.87 L 90.714,494.88 L 90.699,494.88 L 90.684,494.88 L 90.668,494.89 L 90.651,494.89 L 90.634,494.89 L 90.616,494.89 C 90.427,494.89 90.225,494.71 90.225,494.51 C 90.225,494.39 90.316,494.24 90.504,494.24 C 90.706,494.24 90.895,494.44 90.895,494.63 z"
   style="fill:#000000;stroke-width:0" />
<path
   id="path5189"
   d="M 89.472,491.08 L 89.461,491.05 L 89.45,491.02 L 89.445,491 L 89.44,490.98 L 89.435,490.96 L 89.43,490.95 L 89.426,490.93 L 89.422,490.91 L 89.418,490.89 L 89.415,490.87 L 89.413,490.85 L 89.411,490.84 L 89.411,490.83 L 89.41,490.82 L 89.41,490.81 L 89.409,490.8 L 89.409,490.79 C 89.409,490.46 89.688,490.2 90.072,490.2 C 90.769,490.2 91.076,491.16 91.076,491.27 C 91.076,491.36 90.985,491.36 90.964,491.36 C 90.867,491.36 90.86,491.31 90.832,491.24 C 90.671,490.68 90.365,490.39 90.092,490.39 C 89.953,490.39 89.918,490.48 89.918,490.64 C 89.918,490.8 89.967,490.93 90.03,491.08 C 90.1,491.27 90.176,491.46 90.253,491.64 C 90.316,491.81 90.567,492.44 90.595,492.53 C 90.616,492.6 90.636,492.68 90.636,492.75 C 90.636,493.08 90.357,493.34 89.974,493.34 C 89.284,493.34 88.963,492.39 88.963,492.28 C 88.963,492.18 89.06,492.18 89.081,492.18 C 89.179,492.18 89.186,492.22 89.207,492.3 C 89.388,492.9 89.695,493.15 89.953,493.15 C 90.065,493.15 90.127,493.09 90.127,492.9 C 90.127,492.74 90.086,492.64 89.911,492.21 L 89.472,491.08 z"
   style="fill:#000000;stroke-width:0" />
</g>    <g
       style="font-style:normal;font-variant:normal;font-weight:normal;font-stretch:normal;letter-spacing:normal;word-spacing:normal;text-anchor:start;fill:none;fill-opacity:1;stroke:#000000;stroke-linecap:butt;stroke-linejoin:miter;stroke-miterlimit:10.43299961;stroke-dasharray:none;stroke-dashoffset:0;stroke-opacity:1"
       ns0:preamble="/lordvader/gargallo/Desktop/Dropbox/PHD/High_order/paperMeshing/thingsForINKSCAPE.txt"
       ns0:text="\\textcolor{OliveGreen}{$q_{mao}$}"
       text-anchor="start"
       word-spacing="normal"
       letter-spacing="normal"
       font-size-adjust="none"
       font-stretch="normal"
       font-weight="normal"
       font-variant="normal"
       font-style="normal"
       fill-opacity="1"
       fill-rule="even-odd"
       fill="none"
       stroke-opacity="1"
       stroke-dashoffset="0"
       stroke-dasharray="none"
       stroke-miterlimit="10.433"
       stroke-linejoin="miter"
       stroke-linecap="butt"
       stroke="black"
       xml:space="preserve"
       transform="matrix(4.4974766,0,0,-4.3764631,-381.43902,2361.2938)"
       id="g2791">
<path
   id="path2793"
   fill="#379907"
   stroke-width="0"
   stroke="#379907"
   d="M89.546,496.05 L89.546,496.06 L89.545,496.06 L89.545,496.07 L89.544,496.07 L89.543,496.07 L89.542,496.08 L89.541,496.08 L89.54,496.09 L89.538,496.09 L89.537,496.09 L89.535,496.1 L89.532,496.1 L89.53,496.11 L89.528,496.11 L89.525,496.12 L89.522,496.12 L89.519,496.12 L89.515,496.13 L89.512,496.13 L89.508,496.13 L89.504,496.14 L89.5,496.14 L89.496,496.14 L89.491,496.14 L89.486,496.15 L89.481,496.15 L89.476,496.15 L89.47,496.15 L89.465,496.15 L89.459,496.15 L89.452,496.15 L89.446,496.15 C89.336,496.15,88.938,495.76,88.769,495.47 C88.549,496,88.161,496.16,87.842,496.16 V495.94 C88.49,495.94,88.629,495.14,88.629,495.07 C88.629,495.01,88.081,492.83,88.051,492.79 C87.902,492.51,87.344,491.87,86.786,491.87 H86.786 C86.188,491.87,86.148,492.64,86.148,492.81 C86.148,493.28,86.437,494.37,86.607,494.79 C86.915,495.53,87.434,495.94,87.842,495.94 V496.16 C86.666,496.16,85.441,494.69,85.441,493.24 C85.441,492.27,86.029,491.65,86.756,491.65 C87.185,491.65,87.573,491.89,87.932,492.25 C87.842,491.9,87.513,490.55,87.483,490.46 C87.404,490.19,87.324,490.15,86.766,490.14 C86.636,490.14,86.537,490.14,86.537,489.94 C86.537,489.93,86.537,489.83,86.666,489.83 C86.985,489.83,87.334,489.86,87.663,489.86 C88.001,489.86,88.36,489.83,88.689,489.83 C88.739,489.83,88.868,489.83,88.868,490.03 C88.868,490.14,88.769,490.14,88.609,490.14 C88.131,490.14,88.131,490.21,88.131,490.3 C88.131,490.36,88.151,490.42,88.171,490.52 Z " />
<path
   id="path2795"
   fill="#379907"
   stroke-width="0"
   stroke="#379907"
   d="M92.517,490.83 L92.513,490.82 L92.51,490.8 L92.506,490.79 L92.502,490.78 L92.499,490.76 L92.495,490.75 L92.487,490.71 L92.479,490.68 L92.47,490.65 L92.462,490.62 L92.459,490.6 L92.455,490.59 L92.451,490.57 L92.447,490.56 L92.444,490.54 L92.441,490.53 L92.438,490.52 L92.435,490.5 L92.432,490.49 L92.429,490.48 L92.427,490.47 L92.425,490.46 L92.423,490.45 L92.422,490.44 L92.421,490.44 L92.42,490.43 L92.419,490.42 L92.419,490.42 C92.419,490.27,92.545,490.2,92.656,490.2 C92.782,490.2,92.893,490.29,92.928,490.35 C92.963,490.41,93.019,490.64,93.054,490.78 C93.089,490.92,93.165,491.24,93.207,491.41 C93.249,491.57,93.291,491.72,93.326,491.88 C93.402,492.18,93.402,492.19,93.542,492.41 C93.765,492.75,94.114,493.15,94.658,493.15 C95.048,493.15,95.069,492.83,95.069,492.66 C95.069,492.24,94.769,491.47,94.658,491.17 C94.581,490.98,94.553,490.92,94.553,490.8 C94.553,490.43,94.86,490.2,95.215,490.2 C95.913,490.2,96.22,491.16,96.22,491.27 C96.22,491.36,96.129,491.36,96.108,491.36 C96.01,491.36,96.004,491.31,95.976,491.24 C95.815,490.68,95.515,490.39,95.236,490.39 C95.09,490.39,95.062,490.49,95.062,490.64 C95.062,490.8,95.097,490.89,95.223,491.2 C95.306,491.42,95.592,492.16,95.592,492.55 C95.592,492.66,95.592,492.95,95.334,493.15 C95.215,493.24,95.013,493.34,94.686,493.34 C94.058,493.34,93.674,492.93,93.451,492.64 C93.395,493.23,92.9,493.34,92.545,493.34 C91.966,493.34,91.575,492.99,91.366,492.71 C91.317,493.19,90.906,493.34,90.62,493.34 C90.32,493.34,90.16,493.13,90.069,492.97 C89.915,492.71,89.818,492.31,89.818,492.28 C89.818,492.18,89.915,492.18,89.936,492.18 C90.034,492.18,90.041,492.21,90.09,492.39 C90.194,492.81,90.327,493.15,90.599,493.15 C90.78,493.15,90.829,492.99,90.829,492.81 C90.829,492.67,90.766,492.42,90.717,492.23 C90.669,492.04,90.599,491.75,90.564,491.6 L90.341,490.71 C90.313,490.62,90.271,490.44,90.271,490.42 C90.271,490.27,90.397,490.2,90.508,490.2 C90.634,490.2,90.745,490.29,90.78,490.35 C90.815,490.41,90.871,490.64,90.906,490.78 C90.941,490.92,91.017,491.24,91.059,491.41 C91.101,491.57,91.143,491.72,91.178,491.88 C91.254,492.16,91.268,492.22,91.471,492.51 C91.666,492.79,91.994,493.15,92.517,493.15 C92.921,493.15,92.928,492.79,92.928,492.66 C92.928,492.48,92.907,492.39,92.81,492 Z " />
<path
   id="path2797"
   fill="#379907"
   stroke-width="0"
   stroke="#379907"
   d="M99.498,492.93 L99.484,492.95 L99.469,492.97 L99.454,493 L99.439,493.02 L99.423,493.04 L99.406,493.06 L99.389,493.07 L99.371,493.09 L99.353,493.11 L99.334,493.13 L99.314,493.15 L99.295,493.16 L99.274,493.18 L99.253,493.19 L99.232,493.21 L99.209,493.22 L99.187,493.24 L99.164,493.25 L99.14,493.26 L99.115,493.27 L99.091,493.28 L99.065,493.29 L99.039,493.3 L99.012,493.31 L98.985,493.32 L98.958,493.32 L98.929,493.33 L98.901,493.33 L98.871,493.34 L98.841,493.34 L98.811,493.34 L98.78,493.34 V493.15 C99.268,493.15,99.4,492.62,99.4,492.54 C99.4,492.51,99.386,492.46,99.379,492.44 L99.052,491.14 C99.003,490.94,98.849,490.8,98.696,490.67 C98.633,490.62,98.354,490.39,98.054,490.39 C97.796,490.39,97.545,490.57,97.545,491.07 C97.545,491.44,97.747,492.21,97.908,492.48 C98.229,493.04,98.584,493.15,98.78,493.15 V493.34 C97.887,493.34,96.98,492.36,96.98,491.36 C96.98,490.68,97.434,490.2,98.033,490.2 C98.41,490.2,98.745,490.41,99.024,490.69 C99.156,490.27,99.561,490.2,99.742,490.2 C99.993,490.2,100.17,490.35,100.29,490.57 C100.45,490.84,100.54,491.24,100.54,491.27 C100.54,491.36,100.45,491.36,100.43,491.36 C100.33,491.36,100.32,491.33,100.27,491.14 C100.19,490.8,100.06,490.39,99.763,490.39 C99.582,490.39,99.533,490.55,99.533,490.73 C99.533,490.85,99.589,491.1,99.637,491.29 C99.686,491.47,99.756,491.76,99.791,491.91 C99.861,492.17,99.868,492.21,99.93,492.44 C99.972,492.62,100.06,492.95,100.06,492.99 C100.06,493.14,99.93,493.21,99.819,493.21 C99.7,493.21,99.54,493.13,99.498,492.93 Z " />
<path
   id="path2799"
   fill="#379907"
   stroke-width="0"
   stroke="#379907"
   d="M104.58,492.12 L104.58,492.19 L104.57,492.26 L104.56,492.33 L104.55,492.4 L104.54,492.46 L104.52,492.52 L104.5,492.58 L104.48,492.64 L104.45,492.7 L104.42,492.75 L104.39,492.8 L104.36,492.85 L104.32,492.9 L104.29,492.94 L104.25,492.98 L104.2,493.02 L104.16,493.06 L104.11,493.1 L104.07,493.13 L104.02,493.16 L103.96,493.19 L103.91,493.22 L103.86,493.24 L103.8,493.26 L103.74,493.28 L103.69,493.3 L103.63,493.31 L103.57,493.32 L103.5,493.33 L103.44,493.34 L103.38,493.34 L103.32,493.34 L103.31,493.15 C103.68,493.15,104.01,492.89,104.01,492.37 C104.01,492.21,103.92,491.52,103.62,491.03 C103.35,490.62,102.93,490.39,102.58,490.39 H102.58 C102.24,490.39,101.89,490.62,101.89,491.17 C101.89,491.45,102.02,492.14,102.29,492.53 C102.59,492.97,103,493.15,103.31,493.15 L103.32,493.34 C102.28,493.34,101.31,492.37,101.31,491.42 C101.31,490.72,101.82,490.2,102.58,490.2 C103.57,490.2,104.58,491.12,104.58,492.12 Z " />
</g>  </g>
</svg>
